<?xml version="1.0" encoding="UTF-8"?>
<svg width="4077px" height="6075px" viewBox="0 0 4077 6075" xmlns="http://www.w3.org/2000/svg" xmlns:xlink="http://www.w3.org/1999/xlink" version="1.1">
 <!-- Generated by Pixelmator Pro 2.0.8 -->
 <defs>
  <linearGradient id="linear-gradient" gradientUnits="userSpaceOnUse" x1="1867.676" y1="10.816" x2="1864.787" y2="6074.597">
   <stop offset="0" stop-color="#e98606" stop-opacity="1"/>
   <stop offset="1" stop-color="#ffca09" stop-opacity="1"/>
  </linearGradient>
 </defs>
 <path id="Path" d="M1791 189 C1985.688 695.125 1997.491 1708.208 1980 1944 1790.819 2126.625 1567.261 2343.653 1386 2628 1249.259 2842.508 1127.802 3103.51 1089 3402 1053.877 3672.188 1058.344 3779.933 1071 4023 1005.219 3880.316 921.866 3485.306 927 3438 873.412 3648.447 947.921 4085.378 1044 4356 806.391 4089.305 480.482 3611.1 495 2961 509.518 2310.9 1106.243 1666.148 1359 1305 1594.769 968.125 1774.455 496.185 1791 189 Z" fill-opacity="1" fill="url(#linear-gradient)" stroke="none"/>
 <defs>
  <linearGradient id="linear-gradient-1" gradientUnits="userSpaceOnUse" x1="2029.172" y1="10.838" x2="1954.654" y2="6069.876">
   <stop offset="0" stop-color="#028949" stop-opacity="1"/>
   <stop offset="1" stop-color="#56cf55" stop-opacity="1"/>
  </linearGradient>
 </defs>
 <path id="Path-copy" d="M1836 27 C2160.603 685.882 2097 1638 2097 1944 2322 2169 2662.272 2673.419 2673 3105 2684.489 3567.208 2502.69 4021.17 2295 4356 2087.31 4690.83 1960.965 4964.48 1953 5301 2051.881 5107.826 2321.681 4635.391 2538 4554 2332.945 4782.269 1934.682 5196.6 2052 5904 2108.803 5681.967 2207.095 5139.955 2601 4779 3153.511 4272.706 3555 4167 3555 3096 3555 1934.711 2193.58 592.958 1836 27 Z" fill-opacity="1" fill="url(#linear-gradient-1)" stroke="none"/>
</svg>
